<svg width="17" height="16" viewBox="0 0 17 16" fill="none" xmlns="http://www.w3.org/2000/svg">
<path d="M15.7917 8C15.7917 12.1337 12.3771 15.5 8.14583 15.5C3.9146 15.5 0.5 12.1337 0.5 8C0.5 3.86634 3.9146 0.5 8.14583 0.5C12.3771 0.5 15.7917 3.86634 15.7917 8Z" stroke="black"/>
<path d="M10.4973 4.17389C9.48505 4.17389 8.62007 4.87678 8.14485 5.36137C7.66962 4.87678 6.80658 4.17389 5.79479 4.17389C4.05084 4.17389 2.83331 5.35808 2.83331 7.0532C2.83331 8.92099 4.34544 10.1282 5.80831 11.2959C6.49894 11.8478 7.21371 12.418 7.76186 13.0503C7.85411 13.1562 7.98934 13.2174 8.13132 13.2174H8.15934C8.30181 13.2174 8.43655 13.1557 8.52831 13.0503C9.07743 12.418 9.79172 11.8473 10.4828 11.2959C11.9452 10.1287 13.4583 8.92146 13.4583 7.0532C13.4583 5.35808 12.2408 4.17389 10.4973 4.17389Z" fill="#A0B7F3"/>
<path d="M13.4583 2.43475L2.83331 13.2174" stroke="black"/>
</svg>
