<svg width="24" height="24" viewBox="0 0 24 24" fill="none" xmlns="http://www.w3.org/2000/svg">
<path d="M11.4915 7.875C10.6756 7.875 9.87808 8.11693 9.19973 8.57019C8.52138 9.02345 7.99267 9.66768 7.68045 10.4214C7.36824 11.1752 7.28655 12.0046 7.44572 12.8047C7.60488 13.6049 7.99775 14.3399 8.57464 14.9168C9.15153 15.4937 9.88654 15.8866 10.6867 16.0457C11.4869 16.2049 12.3163 16.1232 13.07 15.811C13.8238 15.4988 14.468 14.9701 14.9213 14.2917C15.3745 13.6134 15.6165 12.8158 15.6165 12C15.6152 10.9064 15.1802 9.85787 14.4069 9.08455C13.6336 8.31124 12.5851 7.87624 11.4915 7.875V7.875ZM11.4915 14.625C10.9723 14.625 10.4648 14.471 10.0331 14.1826C9.60141 13.8942 9.26495 13.4842 9.06627 13.0045C8.86759 12.5249 8.81561 11.9971 8.9169 11.4879C9.01818 10.9787 9.26819 10.511 9.6353 10.1438C10.0024 9.77673 10.4701 9.52672 10.9793 9.42544C11.4885 9.32415 12.0163 9.37613 12.496 9.57481C12.9757 9.77349 13.3856 10.1099 13.6741 10.5416C13.9625 10.9733 14.1165 11.4808 14.1165 12C14.1157 12.6959 13.8389 13.3632 13.3467 13.8553C12.8546 14.3474 12.1874 14.6242 11.4915 14.625V14.625Z" fill="black"/>
<path d="M21.7828 15.1087L20.2936 13.8828C20.5576 12.6415 20.5576 11.3585 20.2936 10.1172L21.7828 8.8913C21.9546 8.75057 22.0706 8.55329 22.1102 8.3348C22.1497 8.1163 22.1102 7.89086 21.9987 7.69885L20.47 5.05121C20.3595 4.85856 20.184 4.71157 19.975 4.63659C19.7659 4.5616 19.537 4.56351 19.3292 4.64199L17.5217 5.31919C16.5801 4.46844 15.4692 3.8264 14.262 3.43519L13.9448 1.53343C13.9089 1.31425 13.7961 1.11503 13.6267 0.971473C13.4572 0.827913 13.2422 0.749399 13.0201 0.750003H9.9628C9.74072 0.749407 9.52568 0.827918 9.35623 0.971467C9.18677 1.11502 9.07397 1.31422 9.03805 1.53338L8.72108 3.43519C7.51386 3.82639 6.40301 4.46844 5.46139 5.31919L3.65366 4.64189C3.44591 4.56347 3.21702 4.56159 3.008 4.63658C2.79899 4.71158 2.62351 4.85855 2.513 5.05116L0.984363 7.69899C0.872876 7.89102 0.833395 8.11647 0.87299 8.33495C0.912586 8.55344 1.02867 8.7507 1.20046 8.89139L2.68953 10.1172C2.42553 11.3585 2.42553 12.6415 2.68953 13.8828L1.20032 15.1087C1.02856 15.2494 0.912504 15.4467 0.872935 15.6652C0.833366 15.8837 0.872866 16.1091 0.984363 16.3012L2.51305 18.9488C2.62357 19.1414 2.79908 19.2884 3.00812 19.3634C3.21717 19.4384 3.44608 19.4365 3.65385 19.358L5.46144 18.6808C6.40305 19.5316 7.51391 20.1736 8.72113 20.5648L9.0381 22.4666C9.07401 22.6857 9.18679 22.8849 9.35624 23.0285C9.52569 23.1721 9.74072 23.2506 9.9628 23.25H13.0201C13.2422 23.2506 13.4572 23.1721 13.6267 23.0285C13.7961 22.885 13.9089 22.6858 13.9448 22.4666L14.2618 20.5648C15.4691 20.1736 16.5799 19.5316 17.5215 18.6808L19.3292 19.3581C19.537 19.4365 19.7659 19.4384 19.9749 19.3634C20.1839 19.2884 20.3594 19.1414 20.4699 18.9488L21.9984 16.301C22.1099 16.109 22.1495 15.8837 22.11 15.6652C22.0705 15.4467 21.9545 15.2495 21.7828 15.1087V15.1087ZM19.4092 17.7862L17.1541 16.9413L16.8126 17.2851C15.8731 18.2321 14.6979 18.9113 13.4083 19.2526L12.9396 19.3762L12.5437 21.75H10.4395L10.0438 19.3762L9.57505 19.2526C8.28547 18.9113 7.11029 18.2321 6.17075 17.2851L5.82927 16.9413L3.57378 17.7862L2.52186 15.9638L4.37947 14.4346L4.25291 13.9671C3.90485 12.6788 3.90485 11.3212 4.25291 10.0329L4.37947 9.56545L2.52186 8.0362L3.57402 6.2138L5.82913 7.05867L6.17061 6.71489C7.11015 5.7679 8.28533 5.08872 9.57491 4.74741L10.0437 4.62385L10.4393 2.25H12.5437L12.9395 4.62385L13.4082 4.74741C14.6978 5.08872 15.873 5.7679 16.8125 6.71489L17.154 7.05867L19.4091 6.2138L20.4613 8.03616L18.6037 9.56545L18.7303 10.0329C19.0783 11.3212 19.0783 12.6788 18.7303 13.9671L18.6037 14.4346L20.4613 15.9638L19.4092 17.7862Z" fill="black"/>
</svg>
