<svg width="24" height="24" viewBox="0 0 24 24" fill="none" xmlns="http://www.w3.org/2000/svg">
<path d="M18 7.81497V15.402C17.4281 15.0718 16.7632 14.9395 16.1084 15.0257C15.4537 15.1119 14.8456 15.4118 14.3787 15.8787C13.9117 16.3457 13.6119 16.9537 13.5257 17.6085C13.4395 18.2633 13.5717 18.9282 13.9019 19.5001C14.2322 20.072 14.7419 20.519 15.352 20.7717C15.9621 21.0244 16.6386 21.0687 17.2765 20.8978C17.9144 20.7269 18.4781 20.3502 18.8801 19.8263C19.2821 19.3023 19.5 18.6604 19.5 18V2.88897C19.5002 2.69643 19.4541 2.50665 19.3656 2.33568C19.277 2.16471 19.1486 2.01755 18.9912 1.90664C18.8338 1.79573 18.6521 1.72432 18.4613 1.69845C18.2705 1.67257 18.0763 1.69299 17.895 1.75797L8.295 5.18697C8.06228 5.27041 7.861 5.4237 7.7187 5.62587C7.5764 5.82805 7.50002 6.06924 7.5 6.31647V16.9005C6.92813 16.5703 6.2633 16.438 5.6086 16.5242C4.9539 16.6103 4.34592 16.9101 3.87894 17.377C3.41195 17.8439 3.11205 18.4518 3.02574 19.1064C2.93943 19.7611 3.07154 20.426 3.40157 20.9979C3.73161 21.5699 4.24113 22.017 4.85113 22.2698C5.46113 22.5227 6.13753 22.5673 6.77543 22.3966C7.41333 22.2259 7.9771 21.8495 8.37931 21.3258C8.78151 20.8021 8.99969 20.1603 9 19.5V11.0295L18 7.81647V7.81497ZM18 6.22197L9 9.43497V6.52647L18 3.31197V6.22047V6.22197ZM16.5 16.5C16.8978 16.5 17.2794 16.658 17.5607 16.9393C17.842 17.2206 18 17.6021 18 18C18 18.3978 17.842 18.7793 17.5607 19.0606C17.2794 19.3419 16.8978 19.5 16.5 19.5C16.1022 19.5 15.7206 19.3419 15.4393 19.0606C15.158 18.7793 15 18.3978 15 18C15 17.6021 15.158 17.2206 15.4393 16.9393C15.7206 16.658 16.1022 16.5 16.5 16.5V16.5ZM6 18C6.39783 18 6.77936 18.158 7.06066 18.4393C7.34197 18.7206 7.5 19.1021 7.5 19.5C7.5 19.8978 7.34197 20.2793 7.06066 20.5606C6.77936 20.8419 6.39783 21 6 21C5.60218 21 5.22065 20.8419 4.93934 20.5606C4.65804 20.2793 4.5 19.8978 4.5 19.5C4.5 19.1021 4.65804 18.7206 4.93934 18.4393C5.22065 18.158 5.60218 18 6 18V18Z" fill="black"/>
</svg>
