<svg width="24" height="24" viewBox="0 0 24 24" fill="none" xmlns="http://www.w3.org/2000/svg">
<path d="M19.5 20.5714H4.50001C3.78846 20.5715 3.10387 20.2993 2.58667 19.8106C2.06947 19.3219 1.75886 18.6539 1.71858 17.9434L1.71429 17.7857V5.35716C1.71423 4.86848 1.89969 4.398 2.23318 4.0408C2.56667 3.6836 3.02333 3.46632 3.51087 3.43287L3.64287 3.42859H16.9286C17.4173 3.42853 17.8877 3.61398 18.2449 3.94748C18.6021 4.28097 18.8194 4.73763 18.8529 5.22516L18.8571 5.35716V6.00002H20.3571C20.8458 5.99996 21.3163 6.18541 21.6735 6.51891C22.0307 6.8524 22.248 7.30905 22.2814 7.79659L22.2857 7.92859V17.7857C22.2858 18.4973 22.0135 19.1819 21.5249 19.6991C21.0362 20.2163 20.3681 20.5269 19.6577 20.5672L19.5 20.5714H4.50001H19.5ZM4.50001 19.2857H19.5C19.8766 19.2857 20.2394 19.144 20.5163 18.8888C20.7933 18.6336 20.9641 18.2836 20.9949 17.9083L21 17.7857V7.92859C21 7.77324 20.9437 7.62315 20.8416 7.50608C20.7395 7.389 20.5985 7.31286 20.4446 7.29173L20.3571 7.28573H18.8571V16.5C18.8571 16.6554 18.8009 16.8055 18.6988 16.9225C18.5967 17.0396 18.4556 17.1157 18.3017 17.1369L18.2143 17.1429C18.0589 17.1429 17.9089 17.0866 17.7918 16.9845C17.6747 16.8824 17.5986 16.7413 17.5774 16.5874L17.5714 16.5V5.35716C17.5714 5.20181 17.5152 5.05172 17.4131 4.93465C17.311 4.81757 17.1699 4.74143 17.016 4.7203L16.9286 4.7143H3.64287C3.48752 4.71431 3.33743 4.77057 3.22035 4.87267C3.10328 4.97478 3.02714 5.11583 3.00601 5.26973L3.00001 5.35716V17.7857C3.00002 18.1622 3.14158 18.5249 3.39659 18.8018C3.6516 19.0787 4.00141 19.2496 4.37658 19.2806L4.50001 19.2857H19.5H4.50001ZM8.78229 11.1463C9.37372 11.1463 9.85372 11.6263 9.85372 12.2177V15.2143C9.85372 15.8057 9.37372 16.2857 8.78229 16.2857H5.78572C5.19429 16.2857 4.71429 15.8057 4.71429 15.2143V12.2177C4.71429 11.6263 5.19429 11.1463 5.78572 11.1463H8.78229ZM12.2143 15H15.2109C15.3737 15.0001 15.5305 15.0619 15.6495 15.1731C15.7686 15.2843 15.8409 15.4366 15.852 15.5991C15.8631 15.7616 15.8121 15.9222 15.7094 16.0486C15.6066 16.1749 15.4596 16.2575 15.2983 16.2797L15.2109 16.2857H12.2143C12.0514 16.2857 11.8946 16.2238 11.7756 16.1126C11.6566 16.0014 11.5842 15.8492 11.5731 15.6867C11.562 15.5242 11.613 15.3635 11.7158 15.2372C11.8186 15.1108 11.9655 15.0282 12.1269 15.006L12.2143 15H15.2109H12.2143V15ZM8.56886 12.432H6.00001V15H8.56886V12.432ZM12.2143 11.1463H15.2109C15.3737 11.1464 15.5305 11.2082 15.6495 11.3194C15.7686 11.4306 15.8409 11.5828 15.852 11.7453C15.8631 11.9078 15.8121 12.0685 15.7094 12.1948C15.6066 12.3212 15.4596 12.4038 15.2983 12.426L15.2109 12.432H12.2143C12.0503 12.4337 11.8918 12.3726 11.7713 12.2612C11.6509 12.1498 11.5776 11.9966 11.5664 11.833C11.5552 11.6693 11.607 11.5076 11.7112 11.3809C11.8154 11.2542 11.9641 11.1721 12.1269 11.1514L12.2143 11.1463H15.2109H12.2143V11.1463ZM5.35372 7.28316H15.2109C15.3737 7.28321 15.5305 7.34508 15.6495 7.45628C15.7686 7.56748 15.8409 7.7197 15.852 7.8822C15.8631 8.0447 15.8121 8.20535 15.7094 8.3317C15.6066 8.45805 15.4596 8.54067 15.2983 8.56287L15.2109 8.56887H5.35372C5.19092 8.56861 5.03428 8.50658 4.91543 8.39532C4.79658 8.28405 4.72437 8.13184 4.71338 7.96941C4.70239 7.80697 4.75344 7.64642 4.85622 7.52016C4.95901 7.39391 5.10587 7.31135 5.26715 7.28916L5.35372 7.28316H15.2109H5.35372V7.28316Z" fill="black"/>
</svg>
