<svg width="29" height="29" viewBox="0 0 29 29" fill="none" xmlns="http://www.w3.org/2000/svg">
<rect width="29" height="29" rx="6" fill="#A0B7F3"/>
<path d="M3.80469 7.6875H6.13672V15.3281L12.418 7.6875H15.3477L8.65625 15.5391L15.8633 24H12.957L6.13672 15.8672V24H3.80469V7.6875ZM20.7969 24.1875C19.8203 24.1875 18.832 24.1172 17.832 23.9766V21.9023C18.8477 22.1445 19.8789 22.2656 20.9258 22.2656C23.0195 22.2656 24.0664 21.8242 24.0664 20.9414C24.0664 20.6055 23.9844 20.3555 23.8203 20.1914C23.5781 19.9336 23.1953 19.6758 22.6719 19.418L20.9609 18.6328C19.8516 18.0781 19.1328 17.6328 18.8047 17.2969C18.1875 16.6719 17.8789 15.9297 17.8789 15.0703C17.8789 14.1016 18.3281 13.3125 19.2266 12.7031C20.1953 12.0469 21.5547 11.7188 23.3047 11.7188C24.1875 11.7188 25.0781 11.7812 25.9766 11.9062V13.9102C24.9922 13.7305 24.1328 13.6406 23.3984 13.6406C22.6719 13.6406 22.1055 13.6875 21.6992 13.7812C21.3008 13.875 21 13.9922 20.7969 14.1328C20.4766 14.3516 20.3164 14.6367 20.3164 14.9883C20.3164 15.332 20.4258 15.6133 20.6445 15.832C20.8711 16.043 21.2227 16.2734 21.6992 16.5234L23.4219 17.3555C24.5469 17.9414 25.2695 18.3906 25.5898 18.7031C26.1992 19.2969 26.5039 20.043 26.5039 20.9414C26.5039 21.9023 26.0195 22.6758 25.0508 23.2617C24.0352 23.8789 22.6172 24.1875 20.7969 24.1875Z" fill="white"/>
</svg>
