<svg width="15" height="14" viewBox="0 0 15 14" fill="none" xmlns="http://www.w3.org/2000/svg">
<path d="M10.8198 1C9.39068 1 8.16955 2.0104 7.49864 2.707C6.82773 2.0104 5.60932 1 4.18091 1C1.71886 1 0 2.70227 0 5.13901C0 7.82395 2.13477 9.55936 4.2 11.238C5.175 12.0313 6.18409 12.851 6.95795 13.7599C7.08818 13.9121 7.27909 14 7.47955 14H7.51909C7.72023 14 7.91045 13.9114 8.04 13.7599C8.81523 12.851 9.82364 12.0306 10.7993 11.238C12.8639 9.56004 15 7.82463 15 5.13901C15 2.70227 13.2811 1 10.8198 1Z" fill="#A0B7F3"/>
</svg>
